<svg width="24" height="24" viewBox="0 0 24 24" fill="none" xmlns="http://www.w3.org/2000/svg">
<path fill-rule="evenodd" clip-rule="evenodd" d="M10.3464 4.049C10.0075 4.14398 9.82625 4.31336 6.49838 7.64465C2.72422 11.4227 3.0047 11.0942 3.0047 11.7364C3.0047 12.0568 3.01609 12.1292 3.09067 12.2817C3.19231 12.4896 9.7936 19.1364 10.0497 19.2887C11.0079 19.8586 12.2049 19.0203 11.9606 17.9505C11.869 17.5496 11.8402 17.5163 9.80166 15.4595C7.81517 13.4552 7.63948 13.2969 7.20607 13.1194C7.05529 13.0576 7.23858 13.0553 13.5422 13.0382L20.0336 13.0206L20.2332 12.927C21.3446 12.406 21.2192 10.7979 20.0429 10.4847C19.8873 10.4433 18.8356 10.4354 13.4718 10.435L7.086 10.4346L7.29708 10.334C7.66578 10.1582 7.88956 9.95256 9.83549 8.00051C11.8631 5.96641 11.8699 5.95867 11.9585 5.5293C12.151 4.59807 11.2709 3.78996 10.3464 4.049Z" fill="black"/>
</svg>
