<svg width="24" height="24" viewBox="0 0 24 24" fill="none" xmlns="http://www.w3.org/2000/svg">
<path fill-rule="evenodd" clip-rule="evenodd" d="M6.62989 3.02298C2.53944 3.74526 0.567485 8.42298 2.91829 11.8274C3.27067 12.3377 11.206 20.7403 11.461 20.8731C11.7049 21.0001 12.0989 21.007 12.3614 20.8888C12.5614 20.7988 20.386 12.5734 20.8158 12.0013C22.151 10.2243 22.3042 7.6776 21.1904 5.77056C19.3042 2.54088 14.867 1.98972 12.238 4.65852L11.937 4.9641L11.5201 4.56732C10.1922 3.30366 8.34463 2.72022 6.62989 3.02298ZM8.4183 5.11044C9.23874 5.32026 9.57096 5.53986 10.6174 6.56424C11.8643 7.7847 12.0033 7.7823 13.289 6.5178C14.4914 5.33526 15.127 5.01564 16.2756 5.01564C19.383 5.01564 21.0518 8.72082 18.9698 10.9974C18.2293 11.807 11.956 18.4282 11.9277 18.4299C11.8866 18.4322 4.96639 11.1112 4.73161 10.8169C3.04675 8.70522 4.242 5.61114 6.96097 5.046C7.25275 4.98534 8.07054 5.02152 8.4183 5.11044Z" fill="black"/>
</svg>
