<svg width="24" height="24" viewBox="0 0 24 24" fill="none" xmlns="http://www.w3.org/2000/svg">
<path fill-rule="evenodd" clip-rule="evenodd" d="M4.26981 5.05776C3.69674 5.21189 3.28647 5.58732 3.08519 6.1419L3 6.37653V11.9632V17.5499L3.08519 17.7845C3.29637 18.3663 3.77787 18.779 4.37412 18.8893C4.50287 18.913 7.10391 18.922 12.1248 18.9158L19.6816 18.9066L19.8926 18.822C20.4101 18.6146 20.7321 18.2878 20.9148 17.7845L21 17.5499V13.1233V8.69687L20.9148 8.4622C20.7103 7.89866 20.3014 7.52777 19.7182 7.3768C19.5356 7.32955 19.011 7.32248 15.6401 7.32181L11.7715 7.32109L11.0402 6.28959C10.2819 5.21985 10.1859 5.10227 10.0202 5.03963C9.85314 4.97654 4.50926 4.99337 4.26981 5.05776ZM10.2949 7.25489C10.9578 8.18855 11.0888 8.35406 11.2113 8.41346C11.351 8.48114 11.4462 8.48272 15.375 8.48272C19.92 8.48272 19.5933 8.46233 19.777 8.75767L19.8574 8.88704V13.1259V17.3648L19.7695 17.4946C19.5688 17.791 20.3487 17.764 12 17.764C3.65129 17.764 4.43118 17.791 4.23048 17.4946L4.1426 17.3648V11.9632V6.56157L4.23048 6.43211C4.42227 6.14955 4.28826 6.16229 7.06053 6.16404L9.52149 6.16562L10.2949 7.25489ZM11.7715 10.1127C11.7135 10.1396 11.6185 10.2121 11.5605 10.2737L11.4551 10.3857L11.4448 11.4733L11.4346 12.5608H10.3866C9.35468 12.5608 9.33668 12.5621 9.2199 12.6408C8.82584 12.9064 8.84609 13.4311 9.25851 13.6419C9.40845 13.7185 9.44517 13.721 10.4254 13.721H11.4375L11.4376 14.7669C11.4378 16.0635 11.4848 16.1817 12 16.1817C12.5152 16.1817 12.5622 16.0635 12.5624 14.7669L12.5625 13.721H13.5746C14.5548 13.721 14.5916 13.7185 14.7415 13.6419C15.1539 13.4311 15.1742 12.9064 14.7801 12.6408C14.6633 12.5621 14.6454 12.5608 13.612 12.5608H12.5625V11.5114C12.5625 10.4809 12.5611 10.4598 12.4834 10.3457C12.3168 10.101 12.0116 10.0011 11.7715 10.1127Z" fill="black"/>
</svg>
