<svg width="24" height="24" viewBox="0 0 24 24" fill="none" xmlns="http://www.w3.org/2000/svg">
<rect width="24" height="24" fill="#F3C31B"/>
<path fill-rule="evenodd" clip-rule="evenodd" d="M2 11.9277V15.8548H3.02326H4.04653V11.9277V8.00055H3.02326H2V11.9277ZM4.73792 11.9277V15.8548H5.6366H6.53527L6.54232 13.2897L6.54937 10.7246L6.92238 13.2897L7.29539 15.8548H7.93873C8.37106 15.8548 8.58207 15.8453 8.58207 15.8256C8.58207 15.7698 9.27402 10.6691 9.28536 10.6417C9.29165 10.6265 9.29774 11.7932 9.29891 13.2344L9.30112 15.8548H10.1999H11.0987V11.9274V8L9.75164 8.00719L8.40452 8.01438L8.17809 9.77322C8.05357 10.7406 7.94689 11.5558 7.94108 11.5847C7.93521 11.6136 7.90333 11.4506 7.87008 11.2225C7.83689 10.9943 7.72177 10.1978 7.61426 9.45248C7.50675 8.70716 7.4121 8.07557 7.40394 8.04895C7.39011 8.00373 7.30196 8.00055 6.06353 8.00055H4.73792V11.9277ZM11.7901 11.9277V15.8548L13.5532 15.8544C15.0099 15.854 15.3463 15.8469 15.4894 15.8132C16.0023 15.6922 16.3995 15.3072 16.5344 14.8003C16.5956 14.5704 16.5936 9.27438 16.5323 9.03882C16.4145 8.58658 16.0791 8.22221 15.6373 8.06624L15.4545 8.00173L13.6223 8.00111L11.7901 8.00055V11.9277ZM17.2728 11.9208L17.2798 15.841L18.2397 15.8482L19.1995 15.8555L19.2269 15.7514C19.2419 15.6942 19.2689 15.5882 19.2867 15.5159L19.3191 15.3845L19.4968 15.5507C20.317 16.318 21.6773 15.9573 21.9528 14.8995C22.0151 14.6603 22.016 11.2729 21.9538 11.0342C21.6834 9.99585 20.3121 9.62339 19.5062 10.3695L19.3402 10.5232V9.26186V8.00055H18.303H17.2658L17.2728 11.9208ZM14.293 9.39613C14.5339 9.49749 14.5323 9.48014 14.5211 11.9616C14.5094 14.5685 14.5395 14.424 13.9957 14.4875L13.8367 14.506V11.9138V9.3216L14.0233 9.34137C14.126 9.3523 14.2474 9.37691 14.293 9.39613ZM19.828 11.2619C20.0198 11.3489 20.0177 11.33 20.0177 12.9786C20.0177 14.5252 20.0168 14.5366 19.8821 14.6249C19.7904 14.685 19.5431 14.6861 19.4287 14.627L19.3402 14.5812V12.9536C19.3402 11.181 19.3305 11.2868 19.4974 11.2368C19.6209 11.1996 19.7052 11.2061 19.828 11.2619Z" fill="#050504"/>
</svg>
