<svg width="24" height="24" viewBox="0 0 24 24" fill="none" xmlns="http://www.w3.org/2000/svg">
<path fill-rule="evenodd" clip-rule="evenodd" d="M9.24739 3.06378C5.98012 3.57617 4.07388 7.08566 5.41369 10.1219C5.62182 10.5935 5.89594 11.0189 6.26304 11.4398C6.42047 11.6203 6.54255 11.7727 6.53436 11.7785C6.52616 11.7842 6.39375 11.8435 6.24022 11.9102C3.19593 13.2313 0.993745 16.5808 1.00001 19.8803C1.00111 20.4637 1.06094 20.6398 1.33874 20.8776C1.64459 21.1394 1.49354 21.1318 6.08983 21.1182L10.2999 21.1058L10.4783 21.0104C11.2057 20.6215 11.1867 19.5827 10.4449 19.187L10.2569 19.0867L6.67887 19.0745L3.10075 19.0624L3.12769 18.9027C3.67962 15.6284 6.39666 13.3198 9.91407 13.1365C12.1547 13.0197 13.6556 12.1216 14.5551 10.3594C16.4241 6.69788 13.3161 2.42575 9.24739 3.06378ZM10.7185 5.2293C12.5547 5.6989 13.498 7.73854 12.6558 9.4185C11.554 11.6163 8.42064 11.6182 7.33791 9.42169C6.22526 7.16441 8.28707 4.60743 10.7185 5.2293ZM17.6771 11.1354C17.4081 11.2229 17.2186 11.3865 17.092 11.6404L16.9802 11.8648V13.4674V15.07H15.4645C14.3573 15.07 13.8905 15.085 13.7328 15.126C12.7756 15.3743 12.7256 16.7367 13.6614 17.0707C13.7846 17.1147 14.1953 17.1287 15.4014 17.1301L16.9802 17.1321L16.9806 18.7323C16.981 20.3276 16.9813 20.3332 17.0834 20.5524C17.3775 21.1841 18.266 21.316 18.75 20.7998C18.9946 20.5389 18.9993 20.5001 18.9993 18.7463V17.1358L20.6425 17.1232C22.4644 17.1092 22.4531 17.1109 22.7453 16.803C23.1186 16.4096 23.0749 15.6714 22.6578 15.3264C22.3672 15.0861 22.2339 15.07 20.5395 15.07H19.0022L18.99 13.3981L18.9778 11.7263L18.8476 11.5411C18.5865 11.1697 18.0952 10.9994 17.6771 11.1354Z" fill="black"/>
</svg>
