<svg width="24" height="24" viewBox="0 0 24 24" fill="none" xmlns="http://www.w3.org/2000/svg">
<rect width="24" height="24" fill="#FB5504"/>
<path fill-rule="evenodd" clip-rule="evenodd" d="M4.03953 4.08446C3.96252 4.28479 4.00881 19.9411 4.08625 19.9708C4.12807 19.9868 4.74398 20 5.45483 20H6.74766L6.75556 17.4427C6.76558 14.1225 6.76131 14.3094 6.82873 14.3094C6.88804 14.3094 7.01796 14.4843 8.87209 17.0644C9.48651 17.9193 10.1255 18.8055 10.2919 19.0334C10.4585 19.2612 10.6808 19.5718 10.786 19.7237L10.9771 20H12.6053C13.5007 20 14.2435 19.9834 14.2561 19.9633C14.2828 19.92 12.9989 18.5922 9.56054 15.1071C8.53609 14.0687 8.31826 13.7882 8.72852 14.0352C8.81428 14.0869 9.12234 14.2535 9.41291 14.4052C10.0655 14.7459 10.8267 15.1459 11.3338 15.4141C11.545 15.5258 11.9557 15.742 12.2461 15.8943C12.5366 16.0468 12.9473 16.2629 13.1585 16.3747C13.3699 16.4865 13.7588 16.6911 14.023 16.8296C14.2871 16.968 14.6978 17.1839 14.9354 17.3096C15.1731 17.435 15.6268 17.6733 15.9439 17.8389C16.534 18.1474 17.1548 18.4742 17.7927 18.8128C19.5437 19.7419 19.9461 19.952 19.9741 19.952C19.9892 19.952 20.0018 19.2943 20.0018 18.4904V17.029L19.8936 16.9955C19.8343 16.977 19.6993 16.9232 19.5937 16.8756C19.4879 16.8283 18.8504 16.5704 18.1769 16.3028C17.5034 16.0351 16.8875 15.7876 16.8083 15.7528C16.729 15.7181 16.5128 15.631 16.3281 15.5596C16.1431 15.4881 15.4408 15.2063 14.7673 14.9332C14.0938 14.6601 13.2867 14.338 12.9738 14.217C12.6608 14.096 12.3367 13.9661 12.2533 13.9281C12.1701 13.8902 11.5525 13.6406 10.8809 13.3735C10.2091 13.1062 9.62561 12.8679 9.58422 12.8435C9.44214 12.7603 10.125 12.79 12.9185 12.9884C13.2882 13.0146 13.9041 13.0575 14.2871 13.0835C14.67 13.1096 15.2968 13.1524 15.6798 13.1787C16.0627 13.2049 16.7326 13.2491 17.1684 13.2764C17.6043 13.3039 18.2526 13.3474 18.6091 13.3733C18.9656 13.3991 19.4196 13.4255 19.6176 13.4323L19.9777 13.4449L19.9905 11.9923L20.0031 10.5395H19.82C19.7193 10.5395 19.3569 10.5602 19.0149 10.5851C18.6729 10.6103 18.0256 10.6538 17.5765 10.6822C17.1277 10.7104 16.4578 10.7537 16.0879 10.7786C15.7182 10.8036 15.0591 10.8469 14.6233 10.8751C14.1874 10.9034 13.55 10.9469 13.2065 10.9717C12.8632 10.9967 12.1609 11.0415 11.6459 11.0709C11.1309 11.1006 10.4945 11.143 10.2319 11.1654C9.76279 11.2055 9.48438 11.165 9.70092 11.0882C9.86796 11.0291 13.4875 9.57454 13.6498 9.50136C13.7352 9.46296 13.8971 9.39896 14.0099 9.35928C14.218 9.28589 16.4958 8.37407 16.7603 8.25802C16.8395 8.22346 17.1204 8.10911 17.3845 8.00415C17.6487 7.8994 17.9296 7.78675 18.0088 7.7539C18.0881 7.72104 18.1961 7.67774 18.249 7.65747C18.3017 7.6372 18.7124 7.47208 19.1614 7.29031L19.9777 6.96006L19.9905 5.50829C19.9975 4.70976 19.9901 4.05651 19.9741 4.05651C19.9427 4.05651 18.761 4.67008 18.6812 4.72789C18.6548 4.74688 18.3953 4.88747 18.105 5.04022C17.4183 5.40119 16.9148 5.66936 16.6161 5.8332C16.484 5.90574 16.16 6.07854 15.8959 6.21743C15.6317 6.35631 15.3077 6.52933 15.1754 6.60165C14.813 6.80027 14.3641 7.04092 13.831 7.32231C13.5668 7.46162 13.2859 7.61309 13.2065 7.65896C13.1274 7.70462 12.8248 7.86675 12.5343 8.01887C12.2437 8.17119 11.9412 8.33354 11.862 8.37962C11.7827 8.4257 11.5341 8.56032 11.3097 8.67872C10.8476 8.92236 10.3277 9.1997 9.86903 9.44696C9.69729 9.53955 9.39478 9.70169 9.1968 9.80729C8.9986 9.91268 8.73513 10.0558 8.61118 10.1252C8.10514 10.4087 8.13202 10.3786 11.1896 7.24892C11.9557 6.4649 12.719 5.67981 12.8863 5.50423C13.0535 5.32866 13.4371 4.93313 13.7386 4.62506C14.0402 4.317 14.2871 4.05225 14.2871 4.03689C14.2871 4.02131 13.5444 4.00851 12.6365 4.00851H10.9861L10.6769 4.42879C10.5069 4.65984 10.1536 5.15137 9.89164 5.52109C9.62966 5.89102 9.40224 6.20441 9.38624 6.21743C9.37024 6.23066 9.20554 6.45765 9.02058 6.72176C8.8354 6.98588 8.55102 7.38567 8.38824 7.61011C8.22568 7.83475 7.92103 8.2561 7.71132 8.54667C7.50139 8.83724 7.31216 9.09687 7.29082 9.12396C7.26928 9.15106 7.17733 9.28077 7.08623 9.41218C6.73251 9.92249 6.74297 9.99929 6.74766 6.89777C6.75001 5.37474 6.75108 4.10153 6.7498 4.06846C6.74617 3.96734 4.07836 3.98291 4.03953 4.08446Z" fill="#FBF8F6"/>
</svg>
