<svg width="24" height="24" viewBox="0 0 24 24" fill="none" xmlns="http://www.w3.org/2000/svg">
<path d="M7.875 3.15802L7.91163 3.12141L8.01435 3.01874C8.01435 3.01873 8.01436 3.01872 8.01437 3.01872C8.09282 2.94028 8.20056 2.89584 8.30536 2.88089C8.41027 2.86592 8.52619 2.87848 8.62416 2.9309L7.875 3.15802ZM7.875 3.15802V3.20981M7.875 3.15802V3.20981M7.875 3.20981V4.12698V5.04414V5.09236M7.875 3.20981V5.09236M7.875 5.09236L7.90738 5.12808M7.875 5.09236L7.90738 5.12808M7.90738 5.12808L8.05671 5.29284C8.05671 5.29284 8.05672 5.29285 8.05672 5.29285C8.14016 5.38492 9.62252 6.95332 11.349 8.77638L14.4073 12.0057L14.2108 12.2063C13.9326 12.4903 8.39909 18.337 8.07492 18.6894L8.07492 18.6895M7.90738 5.12808L8.07492 18.6895M8.07492 18.6895L7.90799 18.871L7.875 18.9068M8.07492 18.6895L7.875 18.9068M7.875 18.9068V18.9556M7.875 18.9068V18.9556M7.875 18.9556V19.8734V20.7913V20.8431M7.875 18.9556V20.8431M7.875 20.8431L7.91163 20.8797M7.875 20.8431L7.91163 20.8797M7.91163 20.8797L8.01433 20.9824L7.91163 20.8797ZM8.66457 21.0422L8.6645 21.0422C8.5662 21.111 8.44229 21.133 8.32972 21.1225C8.21703 21.112 8.09932 21.0674 8.01437 20.9824L8.66457 21.0422ZM8.66457 21.0422C8.67339 21.036 8.68138 21.0285 8.68342 21.0266L8.68374 21.0263L8.69742 21.0132C8.70764 21.0032 8.72142 20.9894 8.73842 20.9723C8.77253 20.9379 8.82096 20.8886 8.88263 20.8253C9.00603 20.6986 9.18328 20.5156 9.40671 20.284C9.85361 19.8208 10.4858 19.1632 11.2425 18.3744C12.756 16.7968 14.7682 14.6939 16.7943 12.5713C16.8996 12.461 16.9853 12.3658 17.0442 12.2786C17.1039 12.1901 17.1442 12.0981 17.1424 11.995C17.1406 11.8927 17.0975 11.8008 17.0357 11.7118C16.9743 11.6234 16.8858 11.5258 16.7765 11.4117L16.7765 11.4117M8.66457 21.0422L16.7765 11.4117M16.7765 11.4117C16.6061 11.2339 14.7246 9.26661 12.5954 7.03992M16.7765 11.4117L12.5954 7.03992M12.5954 7.03992C11.5308 5.9265 10.5551 4.91013 9.84087 4.16953M12.5954 7.03992L9.84087 4.16953M9.84087 4.16953C9.48377 3.79925 9.19188 3.49779 8.98685 3.28756M9.84087 4.16953L8.98685 3.28756M8.98685 3.28756C8.88437 3.18249 8.80336 3.09998 8.74666 3.04299M8.98685 3.28756L8.74666 3.04299M8.74666 3.04299C8.71838 3.01456 8.69574 2.99206 8.67936 2.97617M8.74666 3.04299L8.67936 2.97617M8.67936 2.97617C8.67125 2.9683 8.66404 2.96143 8.65815 2.95605M8.67936 2.97617L8.65815 2.95605M8.65815 2.95605C8.65528 2.95343 8.65191 2.95041 8.64846 2.94752M8.65815 2.95605L8.64846 2.94752M8.64846 2.94752C8.64845 2.94751 8.64843 2.9475 8.6484 2.94747M8.64846 2.94752L8.6484 2.94747M8.6484 2.94747C8.64749 2.94669 8.63737 2.93797 8.62422 2.93093L8.6484 2.94747Z" fill="#00B2FF" stroke="#00B2FF" stroke-width="0.25"/>
</svg>
