<svg width="24" height="24" viewBox="0 0 24 24" fill="none" xmlns="http://www.w3.org/2000/svg">
<path d="M12.25 3C7.58491 3 3.73409 6.57738 3.29397 11.1299L2.70705 10.543C2.61375 10.4471 2.50215 10.3708 2.37885 10.3188C2.25556 10.2668 2.12309 10.2401 1.98928 10.2402C1.79043 10.2405 1.59617 10.3 1.43131 10.4112C1.26645 10.5224 1.13848 10.6802 1.06374 10.8645C0.989005 11.0487 0.970898 11.2511 1.01173 11.4457C1.05257 11.6403 1.15049 11.8183 1.29299 11.957L3.54299 14.207C3.73053 14.3945 3.98485 14.4998 4.25002 14.4998C4.51519 14.4998 4.76951 14.3945 4.95705 14.207L7.20705 11.957C7.30303 11.8649 7.37965 11.7545 7.43244 11.6324C7.48522 11.5103 7.51311 11.3788 7.51446 11.2458C7.51582 11.1127 7.49061 10.9808 7.44032 10.8576C7.39003 10.7344 7.31567 10.6225 7.22159 10.5284C7.12751 10.4343 7.01561 10.36 6.89243 10.3097C6.76925 10.2594 6.63728 10.2342 6.50424 10.2356C6.3712 10.2369 6.23976 10.2648 6.11763 10.3176C5.9955 10.3704 5.88514 10.447 5.79299 10.543L5.32717 11.0088C5.80696 7.60476 8.70945 5 12.25 5C14.4715 5 16.4347 6.03046 17.7188 7.63965C17.799 7.74709 17.8999 7.83731 18.0157 7.90495C18.1314 7.97259 18.2596 8.01627 18.3926 8.03338C18.5255 8.0505 18.6606 8.04071 18.7897 8.00459C18.9188 7.96847 19.0393 7.90676 19.1441 7.82313C19.2489 7.7395 19.3358 7.63565 19.3997 7.51777C19.4635 7.39988 19.503 7.27037 19.5158 7.13691C19.5286 7.00346 19.5144 6.86879 19.4741 6.74093C19.4338 6.61306 19.3683 6.49459 19.2813 6.39258C17.6344 4.32876 15.0926 3 12.25 3ZM19.7354 9.53027C19.4753 9.53416 19.2269 9.63925 19.043 9.82324L16.793 12.0732C16.697 12.1654 16.6204 12.2758 16.5676 12.3979C16.5148 12.52 16.4869 12.6514 16.4856 12.7845C16.4842 12.9175 16.5094 13.0495 16.5597 13.1727C16.61 13.2959 16.6844 13.4078 16.7785 13.5018C16.8725 13.5959 16.9844 13.6703 17.1076 13.7206C17.2308 13.7709 17.3628 13.7961 17.4958 13.7947C17.6288 13.7934 17.7603 13.7655 17.8824 13.7127C18.0045 13.6599 18.1149 13.5833 18.2071 13.4873L18.667 13.0273C18.1717 16.4135 15.278 19 11.75 19C9.53529 19 7.57697 17.9747 6.29299 16.374C6.21079 16.2715 6.10921 16.1862 5.99405 16.123C5.87889 16.0598 5.7524 16.0199 5.6218 16.0055C5.49121 15.9912 5.35907 16.0027 5.23293 16.0394C5.10679 16.0762 4.98912 16.1374 4.88665 16.2196C4.78417 16.3018 4.69889 16.4034 4.63568 16.5186C4.57247 16.6338 4.53257 16.7603 4.51825 16.8909C4.50393 17.0214 4.51547 17.1536 4.55223 17.2797C4.58898 17.4059 4.65022 17.5235 4.73244 17.626C6.37947 19.6793 8.91576 21 11.75 21C16.4056 21 20.2509 17.4376 20.7041 12.8984L21.293 13.4873C21.3851 13.5833 21.4955 13.6599 21.6176 13.7127C21.7398 13.7655 21.8712 13.7934 22.0042 13.7947C22.1373 13.7961 22.2692 13.7709 22.3924 13.7206C22.5156 13.6703 22.6275 13.5959 22.7216 13.5018C22.8157 13.4078 22.89 13.2959 22.9403 13.1727C22.9906 13.0495 23.0158 12.9175 23.0145 12.7845C23.0131 12.6514 22.9852 12.52 22.9324 12.3979C22.8796 12.2758 22.803 12.1654 22.7071 12.0732L20.4571 9.82324C20.3625 9.72862 20.2499 9.65394 20.1259 9.60362C20.0019 9.55329 19.8691 9.52835 19.7354 9.53027Z" fill="white"/>
</svg>
