<svg width="24" height="24" viewBox="0 0 24 24" fill="none" xmlns="http://www.w3.org/2000/svg">
<path fill-rule="evenodd" clip-rule="evenodd" d="M9.68529 3.05665C4.37721 3.93745 1.45577 9.63269 3.84042 14.451C5.94277 18.6991 11.3412 20.1529 15.2973 17.5365L15.7142 17.2609L17.5203 19.0594C19.5026 21.0332 19.4554 20.9974 20.0298 20.9608C20.6154 20.9236 21 20.5075 21 19.9116C21 19.41 20.9728 19.3755 19.068 17.4659L17.2908 15.6842L17.571 15.2632C20.636 10.6568 18.0487 4.34245 12.6001 3.13127C11.9988 2.99763 10.3026 2.95421 9.68529 3.05665ZM11.6335 5.18988C15.9844 5.72302 18.1704 10.8201 15.551 14.3243C12.8839 17.8925 7.39885 17.2413 5.63987 13.1476C3.90711 9.11489 7.26649 4.65468 11.6335 5.18988Z" fill="black"/>
</svg>
