<svg width="24" height="24" viewBox="0 0 24 24" fill="none" xmlns="http://www.w3.org/2000/svg">
<path fill-rule="evenodd" clip-rule="evenodd" d="M7.99412 3.04366C6.50979 3.27774 5.25146 4.29091 4.72562 5.67526L4.60274 5.99881L3.6904 6.01125C2.65282 6.0254 2.60282 6.03824 2.29868 6.36826C1.87509 6.82774 1.91048 7.60981 2.37248 8.00029C2.66106 8.24418 2.77666 8.26885 3.74186 8.29251L4.62669 8.31414L4.69392 8.51158C5.92668 12.1339 11.3189 12.1279 12.4908 8.50288L12.5574 8.2967L16.9677 8.28568L21.3779 8.27466L21.604 8.16366C22.438 7.75412 22.4443 6.55822 21.6149 6.10921L21.4569 6.02373L17.0104 6.01317L12.564 6.00265L12.5141 5.83549C11.9744 4.0263 9.89743 2.7434 7.99412 3.04366ZM8.9662 5.33795C10.3827 5.64109 10.908 7.40914 9.8854 8.43176C8.86278 9.45439 7.09473 8.92905 6.79159 7.51251C6.51793 6.23371 7.68734 5.06424 8.9662 5.33795ZM14.867 12.8156C13.3969 13.1213 12.185 14.1673 11.745 15.5101L11.6775 15.7163L7.26724 15.7273C2.887 15.7383 2.85581 15.7389 2.6793 15.8209C1.80225 16.2286 1.76657 17.4477 2.61829 17.9037L2.77802 17.9892L7.22453 17.9998L11.671 18.0103L11.7205 18.1775C11.8742 18.6964 12.2787 19.3508 12.7175 19.7904C14.8628 21.9401 18.5326 21.1039 19.5416 18.2356L19.6144 18.0288L20.5357 18.009C21.3843 17.9908 21.4694 17.9825 21.6149 17.9038C22.4442 17.4548 22.4379 16.2577 21.6041 15.8498C21.3821 15.7412 21.3626 15.7389 20.4964 15.719L19.6146 15.6988L19.5046 15.4158C18.7793 13.5504 16.7652 12.421 14.867 12.8156ZM16.1814 15.122C17.4961 15.5313 17.912 17.2047 16.938 18.1671C16.2039 18.8925 15.1393 18.9032 14.3798 18.1928C12.9868 16.8897 14.357 14.5542 16.1814 15.122Z" fill="black"/>
</svg>
